<svg id="Layer_1" data-name="Layer 1" xmlns="http://www.w3.org/2000/svg" viewBox="0 0 15.77 15.2"><defs><style>.cls-1{fill:#009789;}.cls-2{fill:#fdc113;}.cls-3{fill:#0b897b;}.cls-4{fill:#fcb316;}.cls-5{fill:#0dbcd4;}</style></defs><path class="cls-1" d="M7.51.4A27.41,27.41,0,0,1,.12,15.6H4.6A30.85,30.85,0,0,0,10.88.85L7.68.4Z" transform="translate(-0.12 -0.4)"/><path class="cls-2" d="M14,9.78A30.84,30.84,0,0,0,.13,15.6H6.6A27.46,27.46,0,0,1,15.7,13,30.92,30.92,0,0,1,14,9.78Z" transform="translate(-0.12 -0.4)"/><path class="cls-3" d="M10.65.81,8,.45l-.52,0c-.07.48-.15,1-.25,1.45A30.65,30.65,0,0,0,8.38,9.39a31.3,31.3,0,0,0,2.29-7.24C10.65,1.7,10.64,1.26,10.65.81Z" transform="translate(-0.12 -0.4)"/><path class="cls-4" d="M12.16,10.11A33,33,0,0,0,8.88,11a29.7,29.7,0,0,0,1.26,3.16,27.42,27.42,0,0,1,3.35-.86A26.85,26.85,0,0,1,12.16,10.11Z" transform="translate(-0.12 -0.4)"/><path class="cls-5" d="M10.91.4H7.52a30.84,30.84,0,0,0,4.33,15.2h4A27.55,27.55,0,0,1,10.91.4Z" transform="translate(-0.12 -0.4)"/></svg>